<?xml version="1.0" encoding="UTF-8" standalone="no"?>
<!-- Created with Inkscape (http://www.inkscape.org/) -->

<svg
   version="1.1"
   id="svg2"
   width="1587.4"
   height="1122.52"
   viewBox="0 0 1587.4 1122.52"
   sodipodi:docname="1337-LOGOwhite.ai"
   xmlns:inkscape="http://www.inkscape.org/namespaces/inkscape"
   xmlns:sodipodi="http://sodipodi.sourceforge.net/DTD/sodipodi-0.dtd"
   xmlns="http://www.w3.org/2000/svg"
   xmlns:svg="http://www.w3.org/2000/svg">
  <defs
     id="defs6" />
  <sodipodi:namedview
     id="namedview4"
     pagecolor="#ffffff"
     bordercolor="#000000"
     borderopacity="0.25"
     inkscape:showpageshadow="2"
     inkscape:pageopacity="0.0"
     inkscape:pagecheckerboard="0"
     inkscape:deskcolor="#d1d1d1" />
  <g
     id="g8"
     inkscape:groupmode="layer"
     inkscape:label="1337-LOGOwhite"
     transform="matrix(1.3333333,0,0,-1.3333333,0,1122.52)">
    <g
       id="g10"
       transform="translate(223.0049,520.2251)">
      <path
         d="M 0,0 V 27.939 H -31.876 -81.115 -108.72 V 0 -39.187 h 27.605 V 0 h 49.239 v -195.204 h -38.222 v -27.605 H -31.876 0 38.222 v 27.605 H 0 Z"
         style="fill:#000000;fill-opacity:1;fill-rule:nonzero;stroke:none"
         id="path12" />
    </g>
    <g
       id="g14"
       transform="translate(386.5547,548.1646)">
      <path
         d="m 0,0 v -27.772 h 118.441 v -80.162 H 9.468 v -27.606 h 108.973 v -87.603 H 0 v -27.606 h 118.441 31.876 v 27.606 87.603 27.606 80.162 V 0 l -31.876,0 z"
         style="fill:#000000;fill-opacity:1;fill-rule:nonzero;stroke:none"
         id="path16" />
    </g>
    <g
       id="g18"
       transform="translate(649.8115,548.1646)">
      <path
         d="m 0,0 v -27.772 h 118.441 v -80.162 H 9.468 v -27.606 h 108.973 v -87.603 H 0 v -27.606 h 118.441 31.877 v 27.606 87.603 27.606 80.162 V 0 l -31.877,0 z"
         style="fill:#000000;fill-opacity:1;fill-rule:nonzero;stroke:none"
         id="path20" />
    </g>
    <g
       id="g22"
       transform="translate(1033.3906,548.1646)">
      <path
         d="m 0,0 h -127.589 v -0.167 -27.605 -61.044 h 27.606 v 61.044 H 0 V -250.749 H 31.877 V -27.772 0 Z"
         style="fill:#000000;fill-opacity:1;fill-rule:nonzero;stroke:none"
         id="path24" />
    </g>
  </g>
</svg>
